# Blender v2.80 (sub 75) OBJ File: ''
# www.blender.org
mtllib sphere.mtl
o Sphere
v 0.000000 -0.309017 -0.951056
v 0.000000 -0.809017 -0.587785
v 0.181636 0.951057 -0.250000
v 0.345492 0.809017 -0.475528
v 0.475528 0.587785 -0.654508
v 0.559017 0.309017 -0.769421
v 0.587785 -0.000000 -0.809017
v 0.559017 -0.309017 -0.769421
v 0.475528 -0.587785 -0.654508
v 0.345492 -0.809017 -0.475528
v 0.181636 -0.951057 -0.250000
v 0.293893 0.951057 -0.095491
v 0.559017 0.809017 -0.181635
v 0.769421 0.587785 -0.250000
v 0.904509 0.309017 -0.293892
v 0.951057 -0.000000 -0.309017
v 0.904509 -0.309017 -0.293892
v 0.769421 -0.587785 -0.250000
v 0.559017 -0.809017 -0.181635
v 0.293893 -0.951057 -0.095491
v 0.293893 0.951057 0.095492
v 0.559017 0.809017 0.181636
v 0.769421 0.587785 0.250000
v 0.904509 0.309017 0.293893
v 0.951057 -0.000000 0.309017
v 0.904509 -0.309017 0.293893
v 0.769421 -0.587785 0.250000
v 0.559017 -0.809017 0.181636
v 0.293893 -0.951057 0.095492
v 0.181636 0.951057 0.250001
v 0.345492 0.809017 0.475529
v 0.475528 0.587785 0.654509
v 0.559017 0.309017 0.769421
v 0.587785 -0.000000 0.809017
v 0.559017 -0.309017 0.769421
v 0.475528 -0.587785 0.654509
v 0.345492 -0.809017 0.475529
v 0.181636 -0.951057 0.250000
v 0.000000 0.951057 0.309018
v 0.000000 0.809017 0.587786
v -0.000000 0.587785 0.809018
v 0.000000 0.309017 0.951057
v 0.000000 -0.000000 1.000001
v -0.000000 -0.309017 0.951057
v -0.000000 -0.587785 0.809018
v 0.000000 -0.809017 0.587786
v 0.000000 -0.951057 0.309017
v -0.000000 1.000000 0.000001
v -0.181636 0.951057 0.250001
v -0.345492 0.809017 0.475529
v -0.475529 0.587785 0.654509
v -0.559017 0.309017 0.769422
v -0.587785 -0.000000 0.809018
v -0.559017 -0.309017 0.769421
v -0.475529 -0.587785 0.654509
v -0.345492 -0.809017 0.475529
v -0.181636 -0.951057 0.250000
v -0.293893 0.951057 0.095492
v -0.559017 0.809017 0.181636
v -0.769421 0.587785 0.250000
v -0.904509 0.309017 0.293893
v -0.951057 -0.000000 0.309018
v -0.904509 -0.309017 0.293893
v -0.769421 -0.587785 0.250000
v -0.559017 -0.809017 0.181636
v -0.293893 -0.951057 0.095492
v -0.293893 0.951057 -0.095491
v -0.559017 0.809017 -0.181635
v -0.769421 0.587785 -0.250000
v -0.904509 0.309017 -0.293892
v -0.951057 -0.000000 -0.309017
v -0.904509 -0.309017 -0.293892
v -0.769421 -0.587785 -0.250000
v -0.559017 -0.809017 -0.181635
v -0.293893 -0.951057 -0.095491
v -0.181636 0.951057 -0.250000
v -0.345492 0.809017 -0.475528
v -0.475529 0.587785 -0.654509
v -0.559017 0.309017 -0.769421
v -0.587786 -0.000000 -0.809017
v -0.559017 -0.309017 -0.769421
v -0.475529 -0.587785 -0.654509
v -0.345492 -0.809017 -0.475528
v -0.181636 -0.951057 -0.250000
v -0.000000 0.951057 -0.309017
v -0.000000 0.809017 -0.587785
v -0.000000 0.587785 -0.809017
v -0.000000 0.309017 -0.951057
v -0.000000 -0.000000 -1.000000
v -0.000000 -0.587785 -0.809017
v -0.000000 -0.951057 -0.309017
v 0.000000 -1.000000 0.000000
vt 0.700000 0.400000
vt 0.600000 0.500000
vt 0.600000 0.400000
vt 0.700000 0.800000
vt 0.600000 0.700000
vt 0.700000 0.700000
vt 0.650000 0.000000
vt 0.700000 0.100000
vt 0.600000 0.100000
vt 0.600000 0.300000
vt 0.700000 0.300000
vt 0.600000 0.600000
vt 0.700000 0.600000
vt 0.700000 0.900000
vt 0.650000 1.000000
vt 0.600000 0.900000
vt 0.700000 0.200000
vt 0.600000 0.200000
vt 0.700000 0.500000
vt 0.600000 0.800000
vt 0.500000 0.700000
vt 0.550000 0.000000
vt 0.500000 0.100000
vt 0.500000 0.300000
vt 0.500000 0.600000
vt 0.550000 1.000000
vt 0.500000 0.900000
vt 0.500000 0.200000
vt 0.500000 0.500000
vt 0.500000 0.800000
vt 0.500000 0.400000
vt 0.400000 0.200000
vt 0.400000 0.100000
vt 0.400000 0.500000
vt 0.400000 0.400000
vt 0.400000 0.700000
vt 0.450000 0.000000
vt 0.400000 0.300000
vt 0.400000 0.600000
vt 0.450000 1.000000
vt 0.400000 0.900000
vt 0.400000 0.800000
vt 0.300000 0.600000
vt 0.300000 0.500000
vt 0.300000 0.800000
vt 0.300000 0.100000
vt 0.300000 0.400000
vt 0.300000 0.700000
vt 0.350000 0.000000
vt 0.300000 0.300000
vt 0.350000 1.000000
vt 0.300000 0.900000
vt 0.300000 0.200000
vt 0.250000 1.000000
vt 0.200000 0.900000
vt 0.200000 0.200000
vt 0.200000 0.500000
vt 0.200000 0.800000
vt 0.200000 0.100000
vt 0.200000 0.400000
vt 0.200000 0.700000
vt 0.250000 0.000000
vt 0.200000 0.300000
vt 0.200000 0.600000
vt 0.100000 0.600000
vt 0.150000 1.000000
vt 0.100000 0.900000
vt 0.100000 0.200000
vt 0.100000 0.500000
vt 0.100000 0.800000
vt 0.100000 0.100000
vt 0.100000 0.400000
vt 0.100000 0.700000
vt 0.150000 0.000000
vt 0.100000 0.300000
vt 0.050000 0.000000
vt 0.000000 0.100000
vt 0.000000 0.300000
vt 0.000000 0.600000
vt 0.050000 1.000000
vt 0.000000 0.900000
vt 0.000000 0.200000
vt 0.000000 0.500000
vt 0.000000 0.800000
vt 0.000000 0.400000
vt 0.000000 0.700000
vt 1.000000 0.400000
vt 0.900000 0.500000
vt 0.900000 0.400000
vt 1.000000 0.700000
vt 0.900000 0.800000
vt 0.900000 0.700000
vt 0.950000 0.000000
vt 1.000000 0.100000
vt 0.900000 0.100000
vt 0.900000 0.300000
vt 1.000000 0.300000
vt 0.900000 0.600000
vt 1.000000 0.600000
vt 1.000000 0.900000
vt 0.950000 1.000000
vt 0.900000 0.900000
vt 0.900000 0.200000
vt 1.000000 0.200000
vt 1.000000 0.500000
vt 1.000000 0.800000
vt 0.800000 0.800000
vt 0.800000 0.200000
vt 0.800000 0.100000
vt 0.800000 0.500000
vt 0.800000 0.400000
vt 0.800000 0.700000
vt 0.850000 0.000000
vt 0.800000 0.300000
vt 0.800000 0.600000
vt 0.850000 1.000000
vt 0.800000 0.900000
vt 0.750000 0.000000
vt 0.750000 1.000000
vn 0.3056 -0.1490 -0.9404
vn 0.2239 0.6892 -0.6892
vn 0.0508 -0.9864 -0.1562
vn 0.2781 -0.4361 -0.8559
vn 0.2781 0.4361 -0.8559
vn 0.0508 0.9864 -0.1562
vn 0.2239 -0.6892 -0.6892
vn 0.3056 0.1490 -0.9404
vn 0.1459 0.8815 -0.4491
vn 0.1459 -0.8815 -0.4491
vn 0.5862 0.6892 -0.4259
vn 0.1329 -0.9864 -0.0966
vn 0.7280 -0.4361 -0.5290
vn 0.7280 0.4361 -0.5290
vn 0.1329 0.9864 -0.0966
vn 0.5862 -0.6892 -0.4259
vn 0.8000 0.1490 -0.5812
vn 0.3821 0.8815 -0.2776
vn 0.3821 -0.8815 -0.2776
vn 0.8000 -0.1490 -0.5812
vn 0.4722 -0.8815 0.0000
vn 0.9888 -0.1490 0.0000
vn 0.7246 0.6892 0.0000
vn 0.1643 -0.9864 0.0000
vn 0.8999 -0.4361 0.0000
vn 0.8999 0.4361 0.0000
vn 0.1643 0.9864 0.0000
vn 0.7246 -0.6892 0.0000
vn 0.9888 0.1490 0.0000
vn 0.4722 0.8815 0.0000
vn 0.8000 0.1490 0.5812
vn 0.3821 0.8815 0.2776
vn 0.3821 -0.8815 0.2776
vn 0.8000 -0.1490 0.5812
vn 0.5862 0.6892 0.4259
vn 0.1329 -0.9864 0.0966
vn 0.7280 -0.4361 0.5290
vn 0.7280 0.4361 0.5290
vn 0.1329 0.9864 0.0966
vn 0.5862 -0.6892 0.4259
vn 0.0508 0.9864 0.1562
vn 0.2239 -0.6892 0.6892
vn 0.3056 0.1490 0.9404
vn 0.1459 0.8815 0.4491
vn 0.1459 -0.8815 0.4491
vn 0.3056 -0.1490 0.9404
vn 0.2239 0.6892 0.6892
vn 0.0508 -0.9864 0.1562
vn 0.2781 -0.4361 0.8559
vn 0.2781 0.4361 0.8559
vn -0.2781 0.4361 0.8559
vn -0.0508 0.9864 0.1562
vn -0.2239 -0.6892 0.6892
vn -0.3056 0.1490 0.9404
vn -0.1459 0.8815 0.4491
vn -0.1459 -0.8815 0.4491
vn -0.3056 -0.1490 0.9404
vn -0.2239 0.6892 0.6892
vn -0.0508 -0.9864 0.1562
vn -0.2781 -0.4361 0.8559
vn -0.1329 -0.9864 0.0966
vn -0.7280 -0.4361 0.5290
vn -0.7280 0.4361 0.5290
vn -0.1329 0.9864 0.0966
vn -0.5862 -0.6892 0.4259
vn -0.8000 0.1490 0.5812
vn -0.3821 0.8815 0.2776
vn -0.3821 -0.8815 0.2776
vn -0.8000 -0.1490 0.5812
vn -0.5862 0.6892 0.4259
vn -0.9888 -0.1490 0.0000
vn -0.7246 0.6892 0.0000
vn -0.1643 -0.9864 0.0000
vn -0.8999 -0.4361 0.0000
vn -0.8999 0.4361 0.0000
vn -0.1643 0.9864 0.0000
vn -0.7246 -0.6892 0.0000
vn -0.9888 0.1490 0.0000
vn -0.4722 0.8815 -0.0000
vn -0.4722 -0.8815 -0.0000
vn -0.3821 0.8815 -0.2776
vn -0.3821 -0.8815 -0.2776
vn -0.8000 -0.1490 -0.5812
vn -0.5862 0.6892 -0.4259
vn -0.1329 -0.9864 -0.0966
vn -0.7280 -0.4361 -0.5290
vn -0.7280 0.4361 -0.5290
vn -0.1329 0.9864 -0.0966
vn -0.5862 -0.6892 -0.4259
vn -0.8000 0.1490 -0.5812
vn -0.3056 0.1490 -0.9404
vn -0.1459 0.8815 -0.4491
vn -0.1459 -0.8815 -0.4491
vn -0.3056 -0.1490 -0.9404
vn -0.2239 0.6892 -0.6892
vn -0.0508 -0.9864 -0.1562
vn -0.2781 -0.4361 -0.8559
vn -0.2781 0.4361 -0.8559
vn -0.0508 0.9864 -0.1562
vn -0.2239 -0.6892 -0.6892
usemtl None
s off
f 1/1/1 7/2/1 8/3/1
f 86/4/2 5/5/2 87/6/2
f 92/7/3 91/8/3 11/9/3
f 1/1/4 9/10/4 90/11/4
f 87/6/5 6/12/5 88/13/5
f 85/14/6 48/15/6 3/16/6
f 2/17/7 9/10/7 10/18/7
f 88/13/8 7/2/8 89/19/8
f 85/14/9 4/20/9 86/4/9
f 91/8/10 10/18/10 11/9/10
f 4/20/11 14/21/11 5/5/11
f 92/22/12 11/9/12 20/23/12
f 8/3/13 18/24/13 9/10/13
f 6/12/14 14/21/14 15/25/14
f 3/16/15 48/26/15 12/27/15
f 9/10/16 19/28/16 10/18/16
f 6/12/17 16/29/17 7/2/17
f 3/16/18 13/30/18 4/20/18
f 10/18/19 20/23/19 11/9/19
f 8/3/20 16/29/20 17/31/20
f 20/23/21 28/32/21 29/33/21
f 17/31/22 25/34/22 26/35/22
f 13/30/23 23/36/23 14/21/23
f 92/37/24 20/23/24 29/33/24
f 17/31/25 27/38/25 18/24/25
f 14/21/26 24/39/26 15/25/26
f 12/27/27 48/40/27 21/41/27
f 18/24/28 28/32/28 19/28/28
f 15/25/29 25/34/29 16/29/29
f 12/27/30 22/42/30 13/30/30
f 25/34/31 33/43/31 34/44/31
f 21/41/32 31/45/32 22/42/32
f 28/32/33 38/46/33 29/33/33
f 26/35/34 34/44/34 35/47/34
f 23/36/35 31/45/35 32/48/35
f 92/49/36 29/33/36 38/46/36
f 26/35/37 36/50/37 27/38/37
f 23/36/38 33/43/38 24/39/38
f 21/41/39 48/51/39 30/52/39
f 27/38/40 37/53/40 28/32/40
f 30/52/41 48/54/41 39/55/41
f 36/50/42 46/56/42 37/53/42
f 33/43/43 43/57/43 34/44/43
f 30/52/44 40/58/44 31/45/44
f 37/53/45 47/59/45 38/46/45
f 35/47/46 43/57/46 44/60/46
f 32/48/47 40/58/47 41/61/47
f 92/62/48 38/46/48 47/59/48
f 35/47/49 45/63/49 36/50/49
f 32/48/50 42/64/50 33/43/50
f 41/61/51 52/65/51 42/64/51
f 39/55/52 48/66/52 49/67/52
f 45/63/53 56/68/53 46/56/53
f 42/64/54 53/69/54 43/57/54
f 39/55/55 50/70/55 40/58/55
f 46/56/56 57/71/56 47/59/56
f 44/60/57 53/69/57 54/72/57
f 41/61/58 50/70/58 51/73/58
f 92/74/59 47/59/59 57/71/59
f 44/60/60 55/75/60 45/63/60
f 92/76/61 57/71/61 66/77/61
f 54/72/62 64/78/62 55/75/62
f 51/73/63 61/79/63 52/65/63
f 49/67/64 48/80/64 58/81/64
f 55/75/65 65/82/65 56/68/65
f 52/65/66 62/83/66 53/69/66
f 49/67/67 59/84/67 50/70/67
f 56/68/68 66/77/68 57/71/68
f 54/72/69 62/83/69 63/85/69
f 51/73/70 59/84/70 60/86/70
f 63/87/71 71/88/71 72/89/71
f 60/90/72 68/91/72 69/92/72
f 92/93/73 66/94/73 75/95/73
f 63/87/74 73/96/74 64/97/74
f 60/90/75 70/98/75 61/99/75
f 58/100/76 48/101/76 67/102/76
f 64/97/77 74/103/77 65/104/77
f 61/99/78 71/88/78 62/105/78
f 58/100/79 68/91/79 59/106/79
f 65/104/80 75/95/80 66/94/80
f 67/102/81 77/107/81 68/91/81
f 75/95/82 83/108/82 84/109/82
f 72/89/83 80/110/83 81/111/83
f 69/92/84 77/107/84 78/112/84
f 92/113/85 75/95/85 84/109/85
f 72/89/86 82/114/86 73/96/86
f 69/92/87 79/115/87 70/98/87
f 67/102/88 48/116/88 76/117/88
f 73/96/89 83/108/89 74/103/89
f 71/88/90 79/115/90 80/110/90
f 79/115/91 89/19/91 80/110/91
f 76/117/92 86/4/92 77/107/92
f 83/108/93 91/8/93 84/109/93
f 81/111/94 89/19/94 1/1/94
f 78/112/95 86/4/95 87/6/95
f 92/118/96 84/109/96 91/8/96
f 81/111/97 90/11/97 82/114/97
f 78/112/98 88/13/98 79/115/98
f 76/117/99 48/119/99 85/14/99
f 83/108/100 90/11/100 2/17/100
f 1/1/1 89/19/1 7/2/1
f 86/4/2 4/20/2 5/5/2
f 1/1/4 8/3/4 9/10/4
f 87/6/5 5/5/5 6/12/5
f 2/17/7 90/11/7 9/10/7
f 88/13/8 6/12/8 7/2/8
f 85/14/9 3/16/9 4/20/9
f 91/8/10 2/17/10 10/18/10
f 4/20/11 13/30/11 14/21/11
f 8/3/13 17/31/13 18/24/13
f 6/12/14 5/5/14 14/21/14
f 9/10/16 18/24/16 19/28/16
f 6/12/17 15/25/17 16/29/17
f 3/16/18 12/27/18 13/30/18
f 10/18/19 19/28/19 20/23/19
f 8/3/20 7/2/20 16/29/20
f 20/23/21 19/28/21 28/32/21
f 17/31/22 16/29/22 25/34/22
f 13/30/23 22/42/23 23/36/23
f 17/31/25 26/35/25 27/38/25
f 14/21/26 23/36/26 24/39/26
f 18/24/28 27/38/28 28/32/28
f 15/25/29 24/39/29 25/34/29
f 12/27/30 21/41/30 22/42/30
f 25/34/31 24/39/31 33/43/31
f 21/41/32 30/52/32 31/45/32
f 28/32/33 37/53/33 38/46/33
f 26/35/34 25/34/34 34/44/34
f 23/36/35 22/42/35 31/45/35
f 26/35/37 35/47/37 36/50/37
f 23/36/38 32/48/38 33/43/38
f 27/38/40 36/50/40 37/53/40
f 36/50/42 45/63/42 46/56/42
f 33/43/43 42/64/43 43/57/43
f 30/52/44 39/55/44 40/58/44
f 37/53/45 46/56/45 47/59/45
f 35/47/46 34/44/46 43/57/46
f 32/48/47 31/45/47 40/58/47
f 35/47/49 44/60/49 45/63/49
f 32/48/50 41/61/50 42/64/50
f 41/61/51 51/73/51 52/65/51
f 45/63/53 55/75/53 56/68/53
f 42/64/54 52/65/54 53/69/54
f 39/55/55 49/67/55 50/70/55
f 46/56/56 56/68/56 57/71/56
f 44/60/57 43/57/57 53/69/57
f 41/61/58 40/58/58 50/70/58
f 44/60/60 54/72/60 55/75/60
f 54/72/62 63/85/62 64/78/62
f 51/73/63 60/86/63 61/79/63
f 55/75/65 64/78/65 65/82/65
f 52/65/66 61/79/66 62/83/66
f 49/67/67 58/81/67 59/84/67
f 56/68/68 65/82/68 66/77/68
f 54/72/69 53/69/69 62/83/69
f 51/73/70 50/70/70 59/84/70
f 63/87/71 62/105/71 71/88/71
f 60/90/72 59/106/72 68/91/72
f 63/87/74 72/89/74 73/96/74
f 60/90/75 69/92/75 70/98/75
f 64/97/77 73/96/77 74/103/77
f 61/99/78 70/98/78 71/88/78
f 58/100/79 67/102/79 68/91/79
f 65/104/80 74/103/80 75/95/80
f 67/102/81 76/117/81 77/107/81
f 75/95/82 74/103/82 83/108/82
f 72/89/83 71/88/83 80/110/83
f 69/92/84 68/91/84 77/107/84
f 72/89/86 81/111/86 82/114/86
f 69/92/87 78/112/87 79/115/87
f 73/96/89 82/114/89 83/108/89
f 71/88/90 70/98/90 79/115/90
f 79/115/91 88/13/91 89/19/91
f 76/117/92 85/14/92 86/4/92
f 83/108/93 2/17/93 91/8/93
f 81/111/94 80/110/94 89/19/94
f 78/112/95 77/107/95 86/4/95
f 81/111/97 1/1/97 90/11/97
f 78/112/98 87/6/98 88/13/98
f 83/108/100 82/114/100 90/11/100
